<svg xmlns="http://www.w3.org/2000/svg" viewBox="0 0 32 32" id="at-mention">
  <path d="m22,2.99h-12c-3.31,0-6,2.69-6,6v14c0,2.75,2.24,5,4.99,5h14.12c.55,0,1-.45,1-1s-.45-1-1-1h-14.12c-1.65,0-2.99-1.34-2.99-3v-14c0-2.21,1.79-4,4-4h12c2.21,0,4,1.79,4,4v10.01c0,1.1-.9,2-2,2h-1c-1.1,0-2-.9-2-2v-6.49c0-2.48-2.02-4.5-4.5-4.5s-4.5,2.02-4.5,4.5c0,.55.45,1,1,1s1-.45,1-1c0-1.38,1.12-2.5,2.5-2.5s2.5,1.12,2.5,2.5v2.49h-4c-2.2,0-4,1.79-4,4s1.79,4,4,4h2.01c1.2,0,2.26-.54,3-1.38.73.84,1.8,1.38,3,1.38h1c2.2,0,4-1.79,4-4v-10.01c0-3.31-2.69-6-6-6Zm-3,16.01c0,1.1-.9,2-2,2h-2.01c-1.1,0-2-.9-2-2s.9-2,2-2h4v1.99h0Z"></path>
</svg>
